<svg id="Layer_1" data-name="Layer 1" xmlns="http://www.w3.org/2000/svg" viewBox="0 0 409 341.8"><defs><style>.cls-1{fill:none;stroke:#fff;stroke-miterlimit:10;stroke-width:9px;fill-rule:evenodd;}</style></defs><path class="cls-1" d="M74.48,248c0-25.89,15.26-43.45,33.94-55.31,6.39-4,12.26-7.09,19-10.78,13.16-7.19,26.36-12.88,40-19.55L209,144.08l8.3,8.85c2.75,3.39,5.44,6.28,8.26,9.73,5.46,6.68,10.82,13,16.31,19.67,5.68,6.95,10.39,13.07,15.9,20C263,209,268.28,215.92,273,223.06c9.71,14.59,18.05,33.28,13.47,56-13.94,68.92-114.59,71.32-170.4,35.25-7.95-5.14-8.9-6.41-15.28-11.39C94,297.57,85.34,285.47,81.33,277.1A66.14,66.14,0,0,1,74.48,248Z"/><path class="cls-1" d="M220.45,138.58c3.8-3.19,49.54-22.74,57.56-26.11,18.75-7.89,42.88-18.67,66.36-16.51,52.32,4.79,67.67,64.17,56.88,104.41-11,41.12-51.81,59.15-89.75,35.08-7.82-5-16.17-12.3-22.87-18.7-3.7-3.53-6.89-6.94-10.34-10.73l-10.07-11c-3.8-3.9-6.44-7.31-10-11.13-11.31-12.3-22.58-26.61-33.41-39.74C223.77,142.81,221.5,139.61,220.45,138.58Z"/><path class="cls-1" d="M201.14,134a4.39,4.39,0,0,1-1.53,1.11l-5.2,2.31c-2.49,1.13-4.86,2.21-7.2,3.32-27.93,13.23-78.28,33.24-106,41.57-10.61,3.18-24,6.67-35.89,5.1C6.52,182.28-3.09,142,10,107.37,22.43,74.69,64.29,32,112.61,53.64c9.75,4.36,23.72,15,30.69,22a65.3,65.3,0,0,0,5.52,5L159.58,91c7.36,6.86,14.16,13.76,21.06,21.1C184.51,116.22,199.85,131.55,201.14,134Z"/><path class="cls-1" d="M212,128.37c-2.79-4-10.17-11-12.8-14.34-5.39-6.79-15.26-16.52-21.31-24.57-9.62-12.79-25.2-27.58-30.33-42.85C139.92,24,158.68,10.19,176.77,6.24c18.52-4,49.41-.29,67.81,3.52,24.12,5,59.59,17.26,69.26,40.44a25.46,25.46,0,0,1-5.38,27.63c-12.22,12.22-51.56,30.19-70.65,39.1C231.91,119.68,217.46,127.15,212,128.37Z"/></svg>